# xmcd
# 
# Track frame offsets:
#     150
#     15435
#     29275
#     42784
#     57519
#     74764
#     90381
#     109688
#     126544
#     139600
#     153633
#     169696
#     185503
#     199559
#     218252
# 
# Disc length: 3146
# 
# Revision: 1
# Processed by: cddbd v1.5.2PL0 Copyright (c) Steve Scherf et al.
# Submitted via: fre:ac v1.0.17
# 
DISCID=cb0c480f
DTITLE=Oh Wonder - Oh Wonder
DYEAR=2015
DGENRE=Alternative
TTITLE0=Livewire
TTITLE1=Body Gold
TTITLE2=Technicolour Beat
TTITLE3=Drive
TTITLE4=Lose It
TTITLE5=Landslide
TTITLE6=White Blood
TTITLE7=Without You
TTITLE8=The Rain
TTITLE9=Dazzle
TTITLE10=All We Do
TTITLE11=Midnight Moon
TTITLE12=Shark
TTITLE13=Heart Hope
TTITLE14=Plans
EXTD=
EXTT0=
EXTT1=
EXTT2=
EXTT3=
EXTT4=
EXTT5=
EXTT6=
EXTT7=
EXTT8=
EXTT9=
EXTT10=
EXTT11=
EXTT12=
EXTT13=
EXTT14=
PLAYORDER=
